<svg id="visual" viewBox="0 0 900 300" width="900" height="300" xmlns="http://www.w3.org/2000/svg" xmlns:xlink="http://www.w3.org/1999/xlink" version="1.1"><rect x="0" y="0" width="900" height="300" fill="#001220"></rect><path d="M0 189L21.5 189.2C43 189.3 86 189.7 128.8 188.5C171.7 187.3 214.3 184.7 257.2 182.3C300 180 343 178 385.8 182.7C428.7 187.3 471.3 198.7 514.2 201.5C557 204.3 600 198.7 642.8 193.7C685.7 188.7 728.3 184.3 771.2 183.7C814 183 857 186 878.5 187.5L900 189L900 301L878.5 301C857 301 814 301 771.2 301C728.3 301 685.7 301 642.8 301C600 301 557 301 514.2 301C471.3 301 428.7 301 385.8 301C343 301 300 301 257.2 301C214.3 301 171.7 301 128.8 301C86 301 43 301 21.5 301L0 301Z" fill="#9d006c"></path><path d="M0 197L21.5 198.2C43 199.3 86 201.7 128.8 203.7C171.7 205.7 214.3 207.3 257.2 212.8C300 218.3 343 227.7 385.8 232.5C428.7 237.3 471.3 237.7 514.2 230.8C557 224 600 210 642.8 208.5C685.7 207 728.3 218 771.2 220C814 222 857 215 878.5 211.5L900 208L900 301L878.5 301C857 301 814 301 771.2 301C728.3 301 685.7 301 642.8 301C600 301 557 301 514.2 301C471.3 301 428.7 301 385.8 301C343 301 300 301 257.2 301C214.3 301 171.7 301 128.8 301C86 301 43 301 21.5 301L0 301Z" fill="#a00088"></path><path d="M0 220L21.5 225C43 230 86 240 128.8 242C171.7 244 214.3 238 257.2 236.7C300 235.3 343 238.7 385.8 237.5C428.7 236.3 471.3 230.7 514.2 232.7C557 234.7 600 244.3 642.8 246.2C685.7 248 728.3 242 771.2 236.8C814 231.7 857 227.3 878.5 225.2L900 223L900 301L878.5 301C857 301 814 301 771.2 301C728.3 301 685.7 301 642.8 301C600 301 557 301 514.2 301C471.3 301 428.7 301 385.8 301C343 301 300 301 257.2 301C214.3 301 171.7 301 128.8 301C86 301 43 301 21.5 301L0 301Z" fill="#9a00a9"></path><path d="M0 240L21.5 243.8C43 247.7 86 255.3 128.8 256.8C171.7 258.3 214.3 253.7 257.2 253.2C300 252.7 343 256.3 385.8 258.8C428.7 261.3 471.3 262.7 514.2 259.3C557 256 600 248 642.8 247.2C685.7 246.3 728.3 252.7 771.2 255.5C814 258.3 857 257.7 878.5 257.3L900 257L900 301L878.5 301C857 301 814 301 771.2 301C728.3 301 685.7 301 642.8 301C600 301 557 301 514.2 301C471.3 301 428.7 301 385.8 301C343 301 300 301 257.2 301C214.3 301 171.7 301 128.8 301C86 301 43 301 21.5 301L0 301Z" fill="#8000d0"></path><path d="M0 265L21.5 266.8C43 268.7 86 272.3 128.8 275.2C171.7 278 214.3 280 257.2 281.7C300 283.3 343 284.7 385.8 284.5C428.7 284.3 471.3 282.7 514.2 278.8C557 275 600 269 642.8 269C685.7 269 728.3 275 771.2 275.2C814 275.3 857 269.7 878.5 266.8L900 264L900 301L878.5 301C857 301 814 301 771.2 301C728.3 301 685.7 301 642.8 301C600 301 557 301 514.2 301C471.3 301 428.7 301 385.8 301C343 301 300 301 257.2 301C214.3 301 171.7 301 128.8 301C86 301 43 301 21.5 301L0 301Z" fill="#0000ff"></path></svg>